/* XPM */
static char * icon_xpm[] = {
"32 32 113 2",
"  	c None",
". 	c #FF9F74",
"+ 	c #FFA075",
"@ 	c #FFA578",
"# 	c #C47B59",
"$ 	c #1C120D",
"% 	c #A8694D",
"& 	c #FFA579",
"* 	c #FFA175",
"= 	c #F79A71",
"- 	c #80503A",
"; 	c #1F140F",
"> 	c #7F503A",
", 	c #F69970",
"' 	c #FFA77A",
") 	c #BB7555",
"! 	c #3E271C",
"~ 	c #452C20",
"{ 	c #E8916A",
"] 	c #D1835F",
"^ 	c #100A08",
"/ 	c #6B4431",
"( 	c #EE956D",
"_ 	c #FFA377",
": 	c #F89B71",
"< 	c #FFA277",
"[ 	c #FFA87B",
"} 	c #FFA97B",
"| 	c #FE9F74",
"1 	c #FF9F73",
"2 	c #B27052",
"3 	c #311F16",
"4 	c #332118",
"5 	c #291A13",
"6 	c #FFA478",
"7 	c #FF9E74",
"8 	c #FFA176",
"9 	c #FFA577",
"0 	c #FF9F75",
"a 	c #FFA67E",
"b 	c #FFAC86",
"c 	c #FFAB86",
"d 	c #FFAB85",
"e 	c #FFA983",
"f 	c #FFA982",
"g 	c #FFA880",
"h 	c #FFA780",
"i 	c #FFA881",
"j 	c #FFAA82",
"k 	c #FFC8B0",
"l 	c #FFC7B0",
"m 	c #FFC9B1",
"n 	c #FFCAB1",
"o 	c #FFC9B2",
"p 	c #FFCAB2",
"q 	c #FFCAB3",
"r 	c #FFCBB3",
"s 	c #FFCBB4",
"t 	c #FFCCB4",
"u 	c #FFCCB5",
"v 	c #FFCCB6",
"w 	c #FFEAED",
"x 	c #FFEAE8",
"y 	c #FFEBEA",
"z 	c #FFF2F2",
"A 	c #FFF2F3",
"B 	c #FFF3F3",
"C 	c #FFF5F3",
"D 	c #FFF6F3",
"E 	c #FFF7F4",
"F 	c #FFF7F3",
"G 	c #FFF9F5",
"H 	c #35DF5D",
"I 	c #34DF5C",
"J 	c #33DF5C",
"K 	c #33DE5B",
"L 	c #2FDB5B",
"M 	c #2DD55B",
"N 	c #2AD15C",
"O 	c #27CC5C",
"P 	c #24C75B",
"Q 	c #21C35C",
"R 	c #1DBE5B",
"S 	c #1AB95B",
"T 	c #18B35B",
"U 	c #15AF5C",
"V 	c #12AB5D",
"W 	c #0FA65D",
"X 	c #0BA05C",
"Y 	c #089B5C",
"Z 	c #06965C",
"` 	c #03925D",
" .	c #02915D",
"..	c #01905C",
"+.	c #36DF5E",
"@.	c #37DF5F",
"#.	c #36DE5E",
"$.	c #33DA5E",
"%.	c #30D65F",
"&.	c #2DD05F",
"*.	c #2BCB5F",
"=.	c #28C75F",
"-.	c #25C35F",
";.	c #23BE60",
">.	c #20B960",
",.	c #1DB560",
"'.	c #1AB061",
").	c #18AB61",
"!.	c #15A761",
"~.	c #12A261",
"{.	c #0F9E61",
"].	c #0C9862",
"^.	c #0A9462",
"                                                                ",
"                                                                ",
"                                                                ",
"                                                                ",
"                              .                                 ",
"                              . .                               ",
"                            . . .                               ",
"                            . . . .                             ",
"                          . . . . .                             ",
"                          . . . . . .                           ",
"                        . . . . . . .                           ",
"                        . . . . . . . .                         ",
"                      . . . . . . . . .                         ",
"                      . . . . . . . . . .                       ",
"                    . . . . . . . . . . .                       ",
"                    . . . . . . . . . . . .                     ",
"                  . + @ . . . . . . . . . .                     ",
"                  . # $ % & + . . . . . . . .                   ",
"                . . * = - ; > , . . . . . . .                   ",
"                . . . ' ) ! ~ { . . . . . . . .                 ",
"              . . . ] ^ / ( _ . . . . . . . . .                 ",
"              . . . : + + . . < [ [ [ } | . . .                 ",
"            1 . . . . . . . . 2 3 4 4 5 6 . . . .               ",
"            . 7 7 . . . . . . 8 @ @ 9 @ . 0 . . .               ",
"          a b c d e f g h g i i i i i f e j d c c e             ",
"          k l k k k m m m n o p p q r r s t u u v t             ",
"        w x x y z z A z B B B C C C C C D E D D F D G           ",
"        H I J K L M N O P Q R S T U V W X Y Z `  . ...          ",
"        +.@.+.#.$.%.&.*.=.-.;.>.,.'.).!.~.{.].^.^.^.^.          ",
"                                                                ",
"                                                                ",
"                                                                "};
